<?xml version="1.0" encoding="UTF-8" standalone="no"?>
<svg
   xmlns:dc="http://purl.org/dc/elements/1.1/"
   xmlns:cc="http://creativecommons.org/ns#"
   xmlns:rdf="http://www.w3.org/1999/02/22-rdf-syntax-ns#"
   xmlns:svg="http://www.w3.org/2000/svg"
   xmlns="http://www.w3.org/2000/svg"
   xmlns:sodipodi="http://sodipodi.sourceforge.net/DTD/sodipodi-0.dtd"
   xmlns:inkscape="http://www.inkscape.org/namespaces/inkscape"
   version="1.1"
   id="Capa_1"
   x="0px"
   y="0px"
   viewBox="0 0 216.239 216.239"
   style="enable-background:new 0 0 216.239 216.239;"
   xml:space="preserve"
   sodipodi:docname="hamster.svg"
   inkscape:version="1.0.2 (1.0.2+r75+1)"><metadata
   id="metadata9"><rdf:RDF><cc:Work
       rdf:about=""><dc:format>image/svg+xml</dc:format><dc:type
         rdf:resource="http://purl.org/dc/dcmitype/StillImage" /></cc:Work></rdf:RDF></metadata><defs
   id="defs7" /><sodipodi:namedview
   pagecolor="#ffffff"
   bordercolor="#666666"
   borderopacity="1"
   objecttolerance="10"
   gridtolerance="10"
   guidetolerance="10"
   inkscape:pageopacity="0"
   inkscape:pageshadow="2"
   inkscape:window-width="1920"
   inkscape:window-height="1017"
   id="namedview5"
   showgrid="false"
   inkscape:zoom="2.8810714"
   inkscape:cx="108.1195"
   inkscape:cy="108.1195"
   inkscape:window-x="1600"
   inkscape:window-y="30"
   inkscape:window-maximized="1"
   inkscape:current-layer="Capa_1" />
<path
   d="M160.331,62.553c0,0-21.033-41.208-30.251,1.863c-13.062,6.647-34.009-3.543-59.024-1.767  C62.438,63.263,0.021,61.861,0,117.211c-0.021,35.369,23.601,53.538,38.732,54.188c3.493,0.142,17.06,0,17.935-0.047  c4.646-0.214,9.679-0.433,9.738-2.874c0.12-5.127-19.702-7.227-21.256-8.336c-1.544-1.11-1.544-7.903,7.528-5.468  c15.716,4.43,42.653,1.555,48.85-0.215c6.197-1.779,10.261,7.375,13.801,12.249c3.542,4.872,9.075,4.645,9.075,4.645  s18.819,0,23.472,0c4.645,0,3.098-5.21-7.086-7.421c-10.184-2.214-4.524-7.364,0-11.833c4.166-4.115,14.73-15.072,22.576-16.385  c52.024-8.853,51.314-40.956,50.648-45.823C228.063,76.645,171.398,63.226,160.331,62.553z"
   id="path2"
   style="fill:#334155;fill-opacity:1" />

</svg>
