<svg id="b"  width="80px" height="80px"   version="1.1" viewBox="0 0 31.531 31.633" xmlns="http://www.w3.org/2000/svg" xmlns:cc="http://creativecommons.org/ns#" xmlns:dc="http://purl.org/dc/elements/1.1/" xmlns:rdf="http://www.w3.org/1999/02/22-rdf-syntax-ns#">

 <g id="g" transform="translate(-32.543 -99.036)">
  <g id="h" transform="matrix(.35278 0 0 -.35278 57.439 126.77)">
   <path id="i" d="m0 0c-0.639-2.482-1.797-4.708-3.388-6.713-2.478-3.122-5.987-4.245-9.95-4.336-3.658-0.084-7.012 0.981-10.103 2.898-2.855 1.77-5.797 3.376-8.911 4.689-3.387 1.429-6.925 1.984-10.552 1.946-2.53-0.027-5.058-0.175-7.578-0.36-3.432-0.253-6.729 0.213-9.833 1.739-5 2.459-7.655 6.299-7.742 11.734-0.097 6.03 2.456 10.759 7.321 14.303 2.447 1.783 5.122 3.281 7.696 4.903 1.164 0.734 2.341 1.449 3.501 2.188 2.107 1.343 3.523 3.27 4.819 5.297 0.751 1.176 1.501 2.352 2.265 3.519 2.869 4.385 7.086 6.456 12.485 6.522 4.142 0.051 7.995-0.954 11.576-3.022 4.16-2.403 6.605-5.879 7.244-10.474 0.189-1.36 0.381-2.724 0.468-4.091 0.221-3.463 1.358-6.616 3.326-9.565 1.805-2.705 3.557-5.451 5.165-8.265 1.793-3.136 2.78-6.503 2.545-10.094-0.062-0.944-0.233-1.879-0.354-2.818" fill="#e5e5e5"/>
  </g>
  <g id="j" transform="matrix(.35278 0 0 -.35278 49.096 105.58)">
   <path id="k" d="m0 0c-0.703-2.752-2.005-5.399-4.691-7.449-0.974-0.743-2.098-1.34-3.461-1.672-2.963-0.722-5.721-0.098-8.266 1.649-1.572 1.08-2.78 2.37-3.581 3.793-3.879 6.899-3.538 13.241 1.121 18.933 0.696 0.85 1.733 1.571 2.808 2.166 3.517 1.947 7.91 1.333 11.23-1.506 2.435-2.082 3.728-4.494 4.521-7.029 0.899-2.878 1.002-5.882 0.319-8.885" fill="#e5e5e5"/>
  </g>
  <g id="l" transform="matrix(.35278 0 0 -.35278 59.144 106.94)">
   <path id="m" d="m0 0c-1.734-4.378-4.294-7.737-8.714-9.853-1.166-0.558-2.519-0.974-3.906-1.191-4.286-0.674-8.152 1.258-9.963 4.875-1.234 2.466-1.41 4.891-1.006 7.252 0.818 4.773 3.305 8.689 7.701 11.575 1.607 1.054 3.453 1.811 5.633 2.095 4.199 0.547 7.99-1.316 9.787-4.811 1.246-2.422 1.43-4.803 1.091-7.144-0.158-1.088-0.473-2.139-0.623-2.798" fill="#e5e5e5"/>
  </g>
  <g id="n" transform="matrix(.35278 0 0 -.35278 32.666 108.33)">
   <path id="o" d="m0 0c0.544 2.21 1.37 4.026 2.793 5.579 3.518 3.838 9.096 3.963 13.465 0.289 2.81-2.364 4.39-5.259 5.171-8.445 1.024-4.183 0.715-8.172-1.691-11.777-0.492-0.738-1.12-1.427-1.815-2.026-3.101-2.678-7.5-2.803-11.272-0.363-2.537 1.642-4.203 3.826-5.352 6.293-1.644 3.53-2.019 7.104-1.299 10.45" fill="#e5e5e5"/>
  </g>
  <g id="p" transform="matrix(.35278 0 0 -.35278 63.932 115.72)">
   <path id="q" d="m0 0c-1.315-4.551-4.267-8.512-9.591-10.877-1.908-0.847-3.982-1.26-6.23-1.015-3.217 0.352-5.54 1.867-7.016 4.385-1.396 2.382-1.619 4.873-1.136 7.341 0.984 5.042 3.846 9.017 8.85 11.639 2.656 1.391 5.588 2.034 8.856 1.153 2.586-0.697 4.369-2.214 5.495-4.315 1.392-2.598 1.406-5.236 0.772-8.311" fill="#e5e5e5"/>
  </g>
 </g>
</svg>
