<?xml version="1.0" encoding="UTF-8" standalone="no"?>
<svg
   xmlns:dc="http://purl.org/dc/elements/1.1/"
   xmlns:cc="http://creativecommons.org/ns#"
   xmlns:rdf="http://www.w3.org/1999/02/22-rdf-syntax-ns#"
   xmlns:svg="http://www.w3.org/2000/svg"
   xmlns="http://www.w3.org/2000/svg"
   xmlns:sodipodi="http://sodipodi.sourceforge.net/DTD/sodipodi-0.dtd"
   xmlns:inkscape="http://www.inkscape.org/namespaces/inkscape"
   width="125.48701mm"
   height="47.416512mm"
   viewBox="0 0 125.48701 47.416512"
   version="1.1"
   id="svg8"
   inkscape:version="1.0.2 (1.0.2+r75+1)"
   sodipodi:docname="asklogo.svg">
  <defs
     id="defs2" />
  <sodipodi:namedview
     id="base"
     pagecolor="#ffffff"
     bordercolor="#666666"
     borderopacity="1.0"
     inkscape:pageopacity="0.0"
     inkscape:pageshadow="2"
     inkscape:zoom="0.49497475"
     inkscape:cx="70.754939"
     inkscape:cy="369.79848"
     inkscape:document-units="mm"
     inkscape:current-layer="layer1"
     inkscape:document-rotation="0"
     showgrid="false"
     fit-margin-top="0"
     fit-margin-left="0"
     fit-margin-right="0"
     fit-margin-bottom="0"
     inkscape:window-width="1920"
     inkscape:window-height="1017"
     inkscape:window-x="1600"
     inkscape:window-y="30"
     inkscape:window-maximized="1" />
  <metadata
     id="metadata5">
    <rdf:RDF>
      <cc:Work
         rdf:about="">
        <dc:format>image/svg+xml</dc:format>
        <dc:type
           rdf:resource="http://purl.org/dc/dcmitype/StillImage" />
        <dc:title></dc:title>
      </cc:Work>
    </rdf:RDF>
  </metadata>
  <g
     inkscape:label="Layer 1"
     inkscape:groupmode="layer"
     id="layer1"
     transform="translate(-38.729723,-96.322462)">
    <g
       id="g1667"
       transform="translate(3.0728166,-8.409806)">
      <path
         d="m 39.460737,135.76936 c -0.273403,-2.23661 0.182739,-7.90645 1.288345,-10.78442 1.004711,-2.61478 3.12808,-4.87574 5.345994,-6.48335 2.218267,-1.60796 5.454297,-3.16371 7.9629,-3.16371 2.50825,0 5.139619,1.55575 7.087658,3.16371 1.948039,1.60761 3.835753,3.94618 4.600222,6.48335 0.867128,2.87797 0.759883,8.54781 0.602545,10.78442 -0.07126,1.01635 -0.679098,2.1964 -1.546578,2.6356 -0.867128,0.43921 -2.528358,0.43921 -3.656189,0 -1.127478,-0.4392 -2.344561,-1.34796 -3.109383,-2.6356 -0.903111,-1.52012 -1.726142,-3.5881 -4.233686,-3.5881 -2.833159,0 -4.428772,3.83822 -6.33095,4.87574 -1.538817,0.83891 -3.746853,1.56245 -5.082117,1.34796 -1.296811,-0.20849 -2.769305,-1.33173 -2.928761,-2.6356 z m 13.458825,-13.61863 c -0.924631,0.37394 -2.543528,1.51765 -3.179233,2.24472 -0.48507,0.55457 -0.790575,1.67781 -0.635353,2.11773 0.155222,0.43956 1.017764,0.55421 1.567039,0.52105 0.821266,-0.0497 2.00413,-0.81844 3.35915,-0.81844 1.080205,0 2.130072,1.02482 2.862086,1.16134 0.513644,0.0956 1.326444,0.13829 1.529997,-0.3429 0.209903,-0.49706 0.207786,-1.89477 -0.269875,-2.63878 -0.522464,-0.81386 -1.992136,-1.87078 -2.864556,-2.24472 -0.725663,-0.3115 -1.637241,-0.29634 -2.369255,0 z"
         style="fill:#6a2f08;fill-opacity:1;fill-rule:evenodd;stroke:none;stroke-width:0.352778"
         id="path845" />
      <path
         d="m 56.836454,108.27809 c 0.597252,-0.93345 1.311627,-2.3689 2.316338,-2.96192 1.376186,-0.81244 3.510492,0.46708 3.515784,1.76319 0.0046,1.14617 -0.12065,2.4966 -0.670278,3.52566 -0.747536,1.39982 -1.795639,2.95275 -3.450872,3.02119 -1.346553,0.0554 -2.022828,-0.93063 -2.152297,-2.24755 -0.119239,-1.20968 -0.203906,-2.09303 0.441325,-3.10057 z"
         style="fill:#6a2f08;fill-opacity:1;fill-rule:evenodd;stroke:none;stroke-width:0.352778"
         id="path847" />
      <path
         d="m 66.394614,113.88268 c 0.748948,-0.75072 1.699331,-1.94275 2.789414,-2.30435 1.072092,-0.3556 2.592917,-0.079 3.070931,0.8636 0.594783,1.17299 -0.100189,3.25367 -1.190272,4.5399 -0.977195,1.15323 -2.276475,2.39218 -3.914775,2.14947 -1.333148,-0.1972 -1.827036,-1.23154 -1.726495,-2.4705 0.09243,-1.13736 0.162631,-1.96779 0.971197,-2.77812 z"
         style="fill:#6a2f08;fill-opacity:1;fill-rule:evenodd;stroke:none;stroke-width:0.352778"
         id="path849" />
      <path
         d="m 45.794509,111.15006 c -0.287866,-1.0922 -0.87383,-2.57775 -0.616655,-3.86362 0.364066,-1.81928 2.794705,-3.08328 3.812116,-2.33504 0.872773,0.64206 1.809398,1.52224 2.20345,2.6229 0.358423,1.00189 0.442384,2.2539 0.350309,3.37785 -0.0508,0.61736 -0.118886,1.06186 -0.487539,1.5935 -0.905581,1.30669 -2.02812,1.16169 -3.220156,0.77082 -0.805039,-0.26388 -1.73108,-0.98743 -2.041525,-2.16641 z"
         style="fill:#6a2f08;fill-opacity:1;fill-rule:evenodd;stroke:none;stroke-width:0.352778"
         id="path851" />
      <path
         d="m 37.907457,117.79816 c -0.709789,-0.78776 -1.849614,-1.79988 -2.15265,-2.90795 -0.132292,-0.4826 -0.128764,-1.12572 0,-1.59103 0.141464,-0.51012 0.486833,-1.19168 1.025172,-1.42945 0.410281,-0.18133 1.380419,-0.0889 1.752247,0 1.046339,0.24976 1.909939,0.66745 2.718153,1.42945 0.735542,0.69391 1.329972,1.67146 1.713794,2.59962 0.210609,0.50976 0.333728,0.88653 0.22472,1.42381 -0.267759,1.32115 -1.45662,1.67958 -2.558345,1.67958 -1.141236,0 -1.956858,-0.35349 -2.723091,-1.20403 z"
         style="fill:#6a2f08;fill-opacity:1;fill-rule:evenodd;stroke:none;stroke-width:0.352778"
         id="path853" />
      <path
         d="m 78.940803,119.19586 c -3.661833,0.98319 -6.740878,3.85163 -8.080375,7.31308 -0.637469,1.64677 -0.836436,3.44876 -0.777169,5.20065 0.05503,1.62137 0.287866,3.28048 1.413933,4.54837 2.555875,2.87796 6.952544,3.00566 10.490905,2.9397 1.661584,-0.0307 3.737681,-0.37642 5.132211,-1.32821 1.111603,-0.75812 2.064456,-2.27295 2.221089,-3.60292 0.153459,-1.3014 -0.883708,-2.53789 -2.157941,-2.75379 -1.230136,-0.20884 -2.66312,-0.0123 -3.714398,0.66358 -0.83573,0.53728 -1.47073,1.36948 -2.481086,1.62595 -1.051277,0.26705 -2.608438,0.0148 -3.379963,-0.78634 -0.428978,-0.44521 -0.689328,-1.15887 -0.84067,-1.7272 -0.263172,-0.98742 -0.327025,-2.01824 -0.05009,-3.00919 0.398286,-1.42699 1.280583,-2.83352 2.699102,-3.45017 0.637823,-0.27693 1.455914,-0.49848 2.129014,-0.19932 0.679098,0.30198 1.190273,0.88336 1.810809,1.28905 0.772583,0.50553 1.700741,0.67733 2.596444,0.38382 0.294922,-0.0967 1.151467,-0.42086 1.445683,-0.82761 0.591609,-0.8188 0.09207,-2.2158 -0.277989,-3.0159 -0.420863,-0.91052 -1.079147,-1.78858 -1.895475,-2.39466 -1.645355,-1.22096 -4.355394,-1.38712 -6.28403,-0.86889 z"
         style="fill:#6a2f08;fill-opacity:1;fill-rule:evenodd;stroke:none;stroke-width:0.352778"
         id="path855" />
      <path
         d="m 96.078042,118.40035 c -0.48507,0.036 -1.090789,0.0938 -1.537406,0.30198 -2.020005,0.94085 -1.718028,3.98674 -1.8923,5.65396 -0.407458,3.89961 -0.421569,5.12445 -0.228247,8.9274 0.07091,1.39629 0.161925,2.79294 0.309033,4.18359 0.02822,0.26705 0.303036,0.77646 0.515056,0.94262 1.8288,1.43299 5.795786,1.01001 6.508397,-1.51094 0.474485,-1.67923 -0.428625,-3.60892 -0.7747,-5.15127 -0.08678,-0.38735 -0.137936,-1.05939 0.420864,-1.12818 1.956501,-0.24059 2.585861,2.14277 3.277661,3.45863 1.17651,2.23803 3.34856,5.40527 6.36164,4.69689 1.96497,-0.46214 2.40136,-2.31881 1.72508,-4.05624 -0.16192,-0.41593 -0.35666,-0.84737 -0.68298,-1.15147 -1.41463,-1.31868 -4.80412,-3.84633 -5.5947,-4.50321 -0.12206,-0.10124 -0.84913,-0.67521 -0.77293,-1.31903 0.25752,-2.17029 2.83174,-2.93264 5.7785,-3.30341 0.99095,-0.12453 1.85702,-1.13277 2.06092,-2.24826 0.31362,-1.7145 -1.87431,-3.04129 -3.27201,-3.18311 -1.44216,-0.1464 -3.22827,0.49706 -4.23827,1.49472 -2.34209,2.31281 -2.81305,4.9851 -4.642911,4.50532 -1.240014,-0.32526 -0.518584,-2.07609 -0.420864,-2.56151 0.297391,-1.47462 0.307975,-3.05718 -1.357136,-3.76697 -0.270228,-0.11535 -0.561622,-0.17815 -0.8509,-0.23071 -0.227542,-0.0416 -0.461081,-0.0677 -0.691797,-0.0508 z"
         style="fill:#6a2f08;fill-opacity:1;fill-rule:evenodd;stroke:none;stroke-width:0.352778"
         id="path857" />
      <path
         d="m 120.22533,120.25137 c -0.28187,1.93287 1.7406,3.19758 3.43076,2.67935 1.36384,-0.41804 2.26095,-1.60408 3.42653,-2.3428 2.16359,-1.3716 4.92937,-0.45049 6.23041,1.66123 1.26718,2.0567 -1.54693,4.33564 -2.88502,5.36963 -0.61947,0.47908 -1.26612,0.92287 -1.93322,1.32821 -1.30034,0.79022 -2.64901,1.49366 -3.96522,2.25566 -1.71556,0.99307 -2.74955,1.47638 -3.66007,3.20464 -0.32773,0.62194 -0.50941,1.2326 -0.31115,1.93463 0.48119,1.70392 2.65924,2.20698 4.09399,2.46944 0.58525,0.10725 1.17827,0.16969 1.77059,0.22331 2.60103,0.2353 5.27614,0.18133 7.87999,0.0459 1.30317,-0.0677 2.76613,-0.17074 4.06859,-0.47695 0.36195,-0.0854 1.01177,-0.34572 1.29046,-0.61913 0.44344,-0.43462 0.84314,-0.91687 1.2192,-1.41428 0.75142,-0.99378 1.2439,-3.2124 -0.43885,-3.6696 -0.59549,-0.16157 -1.52788,-0.048 -2.09233,0.0307 -2.34385,0.32668 -2.57492,0.42828 -4.85316,0.87383 -0.72743,0.14253 -1.45098,0.3101 -2.1844,0.41593 -0.72637,0.10442 -1.45839,0.1658 -2.1904,0.21449 -0.37818,0.0254 -0.83785,0.16228 -1.13418,-0.0811 -0.23178,-0.1898 0.40428,-0.46073 0.66393,-0.60819 0.4385,-0.24871 0.90205,-0.44838 1.35008,-0.67874 0.98495,-0.50695 1.99601,-0.96485 2.94922,-1.53282 0.73731,-0.43956 1.42663,-0.96168 2.11137,-1.48379 2.56823,-1.95756 6.16691,-5.08 4.96747,-8.89388 -0.4438,-1.41181 -1.58221,-2.68428 -2.66453,-3.6008 -3.65302,-3.0928 -9.37154,-3.52072 -13.36534,-0.89606 -1.19027,0.78247 -2.18299,1.44428 -3.15101,2.45569 -0.25647,0.26776 -0.56656,0.74295 -0.62371,1.13559 z"
         style="fill:#52a4c7;fill-opacity:1;fill-rule:evenodd;stroke:none;stroke-width:0.352778"
         id="path859" />
      <path
         d="m 143.09309,115.80284 c -0.11113,0.4879 -0.15311,0.99907 -0.13053,1.50107 0.0236,0.52529 0.12488,1.04775 0.26741,1.55011 0.88864,3.13408 4.59316,2.35797 6.80896,2.12266 0.90135,-0.096 1.80552,-0.16051 2.70439,-0.27763 0.2152,-0.0282 1.92723,-0.64065 1.71874,0.35842 -0.22366,1.0728 -0.8001,1.62419 -1.71874,2.11949 -1.70462,0.91934 -4.1596,1.96991 -6.1542,2.58692 -1.23402,0.3817 -1.49437,1.8923 -0.5648,2.65253 3.1877,2.60703 10.30958,-1.9752 10.08556,1.21532 -0.11218,1.59632 -2.53859,3.83258 -4.21463,4.22134 -3.45617,0.80116 -7.98619,-2.67758 -7.98619,0.93345 0,2.21933 2.50402,2.80917 4.22064,3.30765 1.69545,0.49247 3.45722,0.76694 4.85775,0.69356 1.22978,-0.0646 2.75343,-0.64806 3.54471,-1.13418 2.72838,-1.67676 4.04318,-6.42797 4.04283,-8.02182 0,-0.95532 -0.44873,-1.8422 -1.68734,-2.68146 -1.62595,-1.10208 -5.45535,-0.65123 -5.2197,-1.0026 0.31151,-0.46531 6.44173,-1.85031 7.37447,-7.85706 0.10407,-0.67028 0.2854,-1.83162 -0.40781,-2.28777 -1.20121,-0.79022 -2.79929,-0.61136 -4.10245,-0.50411 -2.91395,0.23953 -5.87799,0.84596 -8.80957,0.39299 -0.4759,-0.0734 -0.9338,-0.25083 -1.39629,-0.39299 -1.0347,-0.31821 -2.83634,-1.24072 -3.23321,0.50411 z"
         style="fill:#52a4c7;fill-opacity:1;fill-rule:evenodd;stroke:none;stroke-width:0.352778"
         id="path861" />
      <path
         d="m 114.87122,125.98154 c -0.81068,0.3877 -1.83303,1.48625 -1.83303,2.32622 0,0.83996 0.93944,2.21474 1.83303,2.71392 0.89323,0.49953 2.69134,0.73448 3.52742,0.28222 0.83644,-0.45226 1.57233,-2.10891 1.48978,-2.99614 -0.0829,-0.88689 -1.1497,-1.93852 -1.98613,-2.32622 -0.83609,-0.3877 -2.22039,-0.3877 -3.03107,0 z"
         style="fill:#ea7a27;fill-opacity:1;fill-rule:evenodd;stroke:none;stroke-width:0.352778"
         id="path863" />
      <path
         d="m 47.074387,144.38702 c 0.676981,0 1.263297,0.16086 1.759303,0.4826 l -0.160867,0.73377 -0.09031,0.0201 c -0.449086,-0.37535 -0.9652,-0.56303 -1.548342,-0.56303 -0.636763,0 -1.126066,0.21978 -1.467908,0.65864 -0.341842,0.4392 -0.512939,1.08091 -0.512939,1.92546 0,0.85125 0.171097,1.50142 0.512939,1.9505 0.341842,0.44909 0.824442,0.67346 1.4478,0.67346 0.294922,0 0.588081,-0.0536 0.879828,-0.16087 0.291394,-0.10724 0.557741,-0.25788 0.799041,-0.45226 l 0.100542,0.0501 -0.0702,0.76412 c -0.583141,0.32173 -1.176513,0.4826 -1.779763,0.4826 -0.864659,0 -1.534937,-0.27975 -2.010834,-0.83926 -0.475897,-0.55986 -0.713669,-1.35925 -0.713669,-2.39818 0,-1.06574 0.248003,-1.88666 0.744008,-2.4631 0.496006,-0.57643 1.199797,-0.86465 2.111375,-0.86465 z"
         style="fill:#ea7a27;fill-opacity:1;fill-rule:nonzero;stroke:none;stroke-width:0.352778"
         id="path865" />
      <path
         d="m 53.076548,147.52392 c 0.911578,0.18097 1.367367,0.70026 1.367367,1.55822 0,0.60995 -0.221192,1.06926 -0.663575,1.37759 -0.442384,0.30833 -1.102431,0.46249 -1.980495,0.46249 -0.589844,0 -1.062566,-0.0134 -1.417814,-0.0402 h -0.0099 l 0.05009,-1.94063 -0.05009,-4.50427 1.789641,-0.01 c 0.60325,0 1.067506,0.13406 1.392414,0.40217 0.325261,0.26811 0.487539,0.65687 0.487539,1.16628 0,0.36195 -0.08361,0.67346 -0.251178,0.93486 -0.167569,0.26141 -0.405694,0.45932 -0.714022,0.59338 z m 0.140758,-1.43793 c 0,-0.34854 -0.09525,-0.60148 -0.286455,-0.75882 -0.190853,-0.15769 -0.500945,-0.23636 -0.929922,-0.23636 h -0.814564 l -0.02011,2.16147 1.105959,0.0303 c 0.630061,-0.14746 0.945091,-0.54646 0.945091,-1.19663 z m -1.296811,4.16243 c 0.549628,0 0.971903,-0.10372 1.266825,-0.3115 0.294922,-0.20779 0.442384,-0.50624 0.442384,-0.895 0,-0.65687 -0.412398,-1.03223 -1.236839,-1.12607 l -1.236486,0.0102 -0.01023,0.94509 0.03034,1.34726 c 0.261408,0.0201 0.509411,0.03 0.744008,0.03 z"
         style="fill:#ea7a27;fill-opacity:1;fill-rule:nonzero;stroke:none;stroke-width:0.352778"
         id="path867" />
      <path
         d="m 59.732406,150.25865 -0.06032,0.62336 h -3.6195 l 0.05045,-1.94063 -0.05045,-4.50427 h 3.629731 l 0.04022,0.0804 -0.06032,0.62336 -1.518355,-0.03 -1.276703,0.0201 -0.02011,2.11138 1.2065,0.0201 1.065741,-0.0303 0.06032,0.0705 -0.07055,0.62336 -1.126067,-0.0201 -1.146175,0.01 -0.0099,0.95532 0.02999,1.33703 1.277055,0.0102 1.548342,-0.0402 z"
         style="fill:#ea7a27;fill-opacity:1;fill-rule:nonzero;stroke:none;stroke-width:0.352778"
         id="path869" />
      <path
         d="m 65.151778,147.51369 c 0.435681,0.10724 0.767292,0.29174 0.995186,0.55315 0.227895,0.26141 0.341842,0.59655 0.341842,1.00542 0,0.58314 -0.214489,1.04563 -0.643467,1.38747 -0.428977,0.34184 -1.001888,0.51259 -1.719086,0.51259 -0.341841,0 -0.665339,-0.0452 -0.970139,-0.13547 -0.305152,-0.0907 -0.568324,-0.21625 -0.789516,-0.37712 l 0.160867,-0.7239 0.08043,-0.0303 c 0.201083,0.18768 0.434269,0.33197 0.698853,0.43251 0.264936,0.10054 0.534458,0.15064 0.809272,0.15064 0.455789,0 0.829733,-0.11713 1.121128,-0.35172 0.291747,-0.2346 0.437444,-0.53975 0.437444,-0.91511 0,-0.30833 -0.0956,-0.56127 -0.286456,-0.75882 -0.191205,-0.19791 -0.46108,-0.32703 -0.809625,-0.38735 H 63.2817 l -0.07055,-0.0702 0.05045,-0.55315 1.266825,0.0102 c 0.248003,-0.0938 0.447322,-0.25294 0.598311,-0.47766 0.150636,-0.22437 0.226131,-0.47096 0.226131,-0.73907 0,-0.30833 -0.10407,-0.54434 -0.311856,-0.70873 -0.207786,-0.16404 -0.505883,-0.24624 -0.894644,-0.24624 -0.549628,0 -1.08585,0.18768 -1.608667,0.56303 l -0.100542,-0.0303 0.06032,-0.74401 c 0.516114,-0.32843 1.079148,-0.49247 1.6891,-0.49247 0.609953,0 1.092553,0.13899 1.4478,0.41733 0.355248,0.27799 0.532695,0.65158 0.532695,1.12078 0,0.34184 -0.08855,0.65369 -0.266347,0.93521 -0.177448,0.28152 -0.427214,0.49918 -0.748948,0.65335 z"
         style="fill:#ea7a27;fill-opacity:1;fill-rule:nonzero;stroke:none;stroke-width:0.352778"
         id="path871" />
      <path
         d="m 72.742498,150.88201 h -0.824442 l -0.150636,-0.64347 -0.36195,-1.10596 -1.4478,-0.0303 -1.307042,0.0303 -0.392289,1.06574 -0.160866,0.68369 h -0.804334 l 2.362906,-6.4449 h 0.934861 z m -1.55822,-2.43311 -1.045633,-3.17712 h -0.07056 l -1.166283,3.17712 1.126067,0.0201 z"
         style="fill:#ea7a27;fill-opacity:1;fill-rule:nonzero;stroke:none;stroke-width:0.352778"
         id="path873" />
      <path
         d="m 76.492878,148.87117 0.02999,2.01084 h -0.794103 l 0.02999,-1.94063 -0.02999,-4.50427 h 0.804334 z m 0.995186,-1.40758 c 0.89147,1.15288 1.823156,2.2352 2.795058,3.24732 l -0.0099,0.10054 c -0.201084,0.0603 -0.452614,0.11395 -0.754239,0.16087 l -0.100542,-0.0501 c -1.059039,-1.19979 -1.984022,-2.33926 -2.77495,-3.41841 v -0.0603 l 2.151592,-2.44334 0.402166,-0.56303 h 0.904875 z"
         style="fill:#ea7a27;fill-opacity:1;fill-rule:nonzero;stroke:none;stroke-width:0.352778"
         id="path875" />
      <path
         d="m 85.984011,144.44734 -1.920522,4.48416 c -0.248003,0.54963 -0.470606,0.95673 -0.668514,1.22167 -0.197555,0.26458 -0.427214,0.45402 -0.688622,0.56797 -0.261408,0.11395 -0.626886,0.19438 -1.096081,0.2413 l -0.08043,-0.0102 c -0.06032,-0.16757 -0.107244,-0.37853 -0.140758,-0.63324 l 0.04022,-0.0705 c 0.368653,-0.0469 0.655462,-0.10195 0.85972,-0.16581 0.204611,-0.0635 0.375355,-0.1524 0.512939,-0.26634 0.13723,-0.11395 0.266347,-0.28152 0.386997,-0.50271 l -2.463447,-4.86622 0.874889,-0.0102 0.221191,0.58314 1.668992,3.39831 h 0.100542 l 1.397352,-3.43852 0.180975,-0.5327 z"
         style="fill:#ea7a27;fill-opacity:1;fill-rule:nonzero;stroke:none;stroke-width:0.352778"
         id="path877" />
      <path
         d="m 91.363167,150.88201 0.02011,-2.25214 c 0,-0.42227 -0.09384,-0.744 -0.281517,-0.9652 -0.187677,-0.22119 -0.459316,-0.33196 -0.814564,-0.33196 -0.268111,0 -0.537986,0.0706 -0.809272,0.21131 -0.271639,0.14076 -0.528108,0.34185 -0.769408,0.60325 l -0.0099,0.7239 0.02011,2.01084 h -0.794455 l 0.03034,-1.94063 -0.03034,-3.85057 h -0.522817 l -1.065741,0.0201 -0.06032,-0.0804 0.06032,-0.59337 h 4.574822 l 0.06033,0.0804 -0.0702,0.59338 -1.176514,-0.0201 h -0.995539 l -0.02011,2.29235 h 0.07056 c 0.435681,-0.38206 0.914753,-0.64029 1.43757,-0.77435 0.643819,0 1.121128,0.15099 1.432983,0.45261 0.311503,0.30163 0.467431,0.76059 0.467431,1.37725 l 0.04022,2.44334 z"
         style="fill:#ea7a27;fill-opacity:1;fill-rule:nonzero;stroke:none;stroke-width:0.352778"
         id="path879" />
      <path
         d="m 98.772911,148.87117 0.02011,2.01084 h -0.794102 l 0.04022,-1.94063 -0.01023,-0.9652 -1.789642,-0.01 -1.638653,0.01 -0.01023,0.89499 0.03034,2.01084 h -0.794456 l 0.03034,-1.94063 -0.03034,-4.50427 h 0.804333 l -0.02999,2.85538 1.709209,0.0102 1.719086,-0.0102 -0.02999,-2.85538 h 0.814211 z"
         style="fill:#ea7a27;fill-opacity:1;fill-rule:nonzero;stroke:none;stroke-width:0.352778"
         id="path881" />
      <path
         d="m 104.63467,150.25865 -0.0603,0.62336 h -3.6195 l 0.0501,-1.94063 -0.0501,-4.50427 h 3.62938 l 0.0402,0.0804 -0.0603,0.62336 -1.518,-0.03 -1.27706,0.0201 -0.0201,2.11138 1.2065,0.0201 1.06575,-0.0303 0.0603,0.0705 -0.0702,0.62336 -1.12607,-0.0201 -1.14617,0.01 -0.0102,0.95532 0.0303,1.33703 1.27671,0.0102 1.54834,-0.0402 z"
         style="fill:#ea7a27;fill-opacity:1;fill-rule:nonzero;stroke:none;stroke-width:0.352778"
         id="path883" />
      <path
         d="m 113.14049,147.11152 c 0.61666,0 1.08585,0.14746 1.40758,0.44238 0.32174,0.29492 0.4826,0.72073 0.4826,1.27706 0,0.65687 -0.21801,1.16275 -0.65369,1.518 -0.43568,0.35525 -1.05904,0.53305 -1.87008,0.53305 h -1.52823 l 0.0402,-1.94063 -0.03,-3.87068 h -1.70921 l -0.0603,0.57291 c -0.11395,1.30034 -0.2466,2.31775 -0.39723,3.05153 -0.15099,0.73413 -0.34008,1.27529 -0.56797,1.62383 -0.2279,0.34855 -0.52635,0.57292 -0.895,0.67346 l -0.25118,0.0303 -0.15099,-0.64347 c 0.32844,-0.12065 0.58808,-0.33867 0.77929,-0.6537 0.19085,-0.31503 0.34678,-0.79763 0.46743,-1.4478 0.12065,-0.65017 0.22789,-1.57515 0.32173,-2.77495 l 0.10054,-1.04563 -0.01,-0.0201 h 3.16688 l -0.0201,2.67441 z m -0.29175,3.18735 c 0.44239,-0.0469 0.77929,-0.18768 1.01036,-0.42228 0.23142,-0.2346 0.34713,-0.54963 0.34713,-0.94509 0,-0.39546 -0.11077,-0.69885 -0.33196,-0.90981 -0.22119,-0.21132 -0.5461,-0.3168 -0.97508,-0.3168 l -1.1363,0.01 -0.01,1.1564 0.01,1.39736 z"
         style="fill:#ea7a27;fill-opacity:1;fill-rule:nonzero;stroke:none;stroke-width:0.352778"
         id="path885" />
      <path
         d="m 120.58057,144.44734 -1.92052,4.48416 c -0.248,0.54963 -0.47096,0.95673 -0.66851,1.22167 -0.19791,0.26458 -0.42722,0.45402 -0.68862,0.56797 -0.26141,0.11395 -0.62689,0.19438 -1.09608,0.2413 l -0.0804,-0.0102 c -0.0603,-0.16757 -0.10724,-0.37853 -0.14076,-0.63324 l 0.0402,-0.0705 c 0.36865,-0.0469 0.65511,-0.10195 0.85972,-0.16581 0.20426,-0.0635 0.37536,-0.1524 0.51259,-0.26634 0.13758,-0.11395 0.2667,-0.28152 0.38735,-0.50271 l -2.46345,-4.86622 0.87489,-0.0102 0.22119,0.58314 1.66899,3.39831 h 0.10054 l 1.39736,-3.43852 0.18097,-0.5327 z"
         style="fill:#ea7a27;fill-opacity:1;fill-rule:nonzero;stroke:none;stroke-width:0.352778"
         id="path887" />
      <path
         d="m 124.02898,147.16197 c 0.63676,0 1.12112,0.14569 1.45274,0.43744 0.33196,0.2914 0.49777,0.71191 0.49777,1.26153 0,0.65017 -0.22437,1.14971 -0.67346,1.49825 -0.44908,0.34855 -1.09255,0.52282 -1.9304,0.52282 h -1.54834 l 0.0402,-1.94063 -0.0402,-4.50427 h 3.8608 l 0.0501,0.0804 -0.0603,0.59338 -1.56845,-0.0201 h -1.47779 l -0.0201,2.07116 z m -0.30163,3.14677 c 0.4692,-0.0469 0.82268,-0.18591 1.0608,-0.41698 0.23778,-0.23142 0.35702,-0.54469 0.35702,-0.94015 0,-0.38876 -0.11572,-0.68721 -0.34714,-0.895 -0.23107,-0.20779 -0.56797,-0.3115 -1.01035,-0.3115 l -1.17616,0.01 -0.0102,1.11618 0.0201,1.40759 z"
         style="fill:#ea7a27;fill-opacity:1;fill-rule:nonzero;stroke:none;stroke-width:0.352778"
         id="path889" />
      <path
         d="m 127.60826,148.94138 -0.0402,-4.47393 0.81457,-0.0505 -0.0505,5.18795 h 0.0804 l 3.308,-5.16784 h 0.84455 l -0.0402,4.43406 0.03,2.01084 h -0.81421 l 0.0402,-1.94063 v -3.22721 h -0.0706 l -3.31787,5.16784 h -0.82445 z"
         style="fill:#ea7a27;fill-opacity:1;fill-rule:nonzero;stroke:none;stroke-width:0.352778"
         id="path891" />
      <path
         d="m 141.10095,150.88201 h -0.7239 l -0.15063,-1.96074 -0.34185,-3.2071 h -0.0705 l -1.78964,4.42383 h -0.66358 l -1.69898,-4.42383 h -0.0804 l -0.34184,3.14677 -0.1711,2.02107 h -0.68368 l 0.6738,-6.4449 h 0.91476 l 0.33196,0.98531 1.39735,3.66995 h 0.0603 l 1.46791,-3.73028 0.33196,-0.92498 h 0.90488 z"
         style="fill:#ea7a27;fill-opacity:1;fill-rule:nonzero;stroke:none;stroke-width:0.352778"
         id="path893" />
      <path
         d="m 148.50082,152.07828 -0.61313,0.0705 -0.12065,-1.26682 h -4.81612 l 0.0402,-1.94063 -0.0402,-4.50427 h 0.80433 l -0.03,4.43406 0.0201,1.34726 h 2.99615 l 0.0201,-1.27705 -0.0303,-4.50427 h 0.80434 l -0.0402,4.43406 0.0201,1.34726 h 0.98531 z"
         style="fill:#ea7a27;fill-opacity:1;fill-rule:nonzero;stroke:none;stroke-width:0.352778"
         id="path895" />
      <path
         d="m 153.63867,150.25865 -0.0603,0.62336 h -3.6195 l 0.0501,-1.94063 -0.0501,-4.50427 h 3.62938 l 0.0402,0.0804 -0.0603,0.62336 -1.518,-0.03 -1.27706,0.0201 -0.0201,2.11138 1.2065,0.0201 1.06574,-0.0303 0.0603,0.0705 -0.0702,0.62336 -1.12607,-0.0201 -1.14618,0.01 -0.0102,0.95532 0.0303,1.33703 1.2767,0.0102 1.54835,-0.0402 z"
         style="fill:#ea7a27;fill-opacity:1;fill-rule:nonzero;stroke:none;stroke-width:0.352778"
         id="path897" />
    </g>
  </g>
</svg>
