<?xml version="1.0" encoding="UTF-8" standalone="no"?>
<svg
   xmlns:dc="http://purl.org/dc/elements/1.1/"
   xmlns:cc="http://creativecommons.org/ns#"
   xmlns:rdf="http://www.w3.org/1999/02/22-rdf-syntax-ns#"
   xmlns:svg="http://www.w3.org/2000/svg"
   xmlns="http://www.w3.org/2000/svg"
   xmlns:sodipodi="http://sodipodi.sourceforge.net/DTD/sodipodi-0.dtd"
   xmlns:inkscape="http://www.inkscape.org/namespaces/inkscape"
   width="988.08557"
   height="271.60672"
   viewBox="0 0 988.08557 271.60672"
   version="1.1"
   xml:space="preserve"
   style="clip-rule:evenodd;fill-rule:evenodd;stroke-linejoin:round;stroke-miterlimit:2"
   id="svg66"
   sodipodi:docname="Лого позитив бела подлога.svg"
   inkscape:version="1.0.2 (1.0.2+r75+1)"><metadata
     id="metadata72"><rdf:RDF><cc:Work
         rdf:about=""><dc:format>image/svg+xml</dc:format><dc:type
           rdf:resource="http://purl.org/dc/dcmitype/StillImage" /><dc:title></dc:title></cc:Work></rdf:RDF></metadata><defs
     id="defs70" /><sodipodi:namedview
     pagecolor="#ffffff"
     bordercolor="#666666"
     borderopacity="1"
     objecttolerance="10"
     gridtolerance="10"
     guidetolerance="10"
     inkscape:pageopacity="0"
     inkscape:pageshadow="2"
     inkscape:window-width="1920"
     inkscape:window-height="1017"
     id="namedview68"
     showgrid="false"
     fit-margin-top="0"
     fit-margin-left="0"
     fit-margin-right="0"
     fit-margin-bottom="0"
     inkscape:zoom="0.33620475"
     inkscape:cx="316.06661"
     inkscape:cy="397.66898"
     inkscape:window-x="1600"
     inkscape:window-y="30"
     inkscape:window-maximized="1"
     inkscape:current-layer="svg66" /><g
     id="g14"
     transform="translate(-92.347719,-79.882829)"><path
       d="m 122.3,324.27 c -2.153,-17.612 1.437,-62.256 10.144,-84.918 7.91,-20.588 24.629,-38.39 42.094,-51.051 17.466,-12.66 42.948,-24.911 62.7,-24.911 19.751,0 40.471,12.251 55.809,24.911 15.338,12.661 30.202,31.073 36.221,51.051 6.828,22.662 5.985,67.306 4.746,84.918 -0.563,8.001 -5.35,17.293 -12.178,20.752 -6.827,3.459 -19.91,3.459 -28.789,0 -8.879,-3.459 -18.461,-10.615 -24.484,-20.752 -7.112,-11.97 -13.591,-28.255 -33.336,-28.255 -22.308,0 -34.872,30.224 -49.85,38.392 -12.116,6.607 -29.504,12.305 -40.017,10.615 -10.21,-1.641 -21.805,-10.487 -23.06,-20.752 z M 228.275,217.035 c -7.282,2.946 -20.028,11.95 -25.034,17.675 -3.82,4.369 -6.225,13.212 -5.002,16.675 1.222,3.463 8.012,4.364 12.339,4.102 6.465,-0.39 15.78,-6.443 26.448,-6.443 8.506,0 16.773,8.071 22.537,9.145 4.045,0.753 10.444,1.089 12.046,-2.702 1.654,-3.913 1.636,-14.918 -2.124,-20.777 -4.113,-6.409 -15.687,-14.729 -22.555,-17.675 -5.715,-2.452 -12.891,-2.333 -18.655,0 z"
       style="fill:#733e00"
       id="path4" /><path
       d="m 259.115,107.802 c 4.705,-7.351 10.327,-18.651 18.238,-23.321 10.838,-6.398 27.643,3.676 27.684,13.881 0.036,9.026 -0.95,19.661 -5.277,27.763 -5.886,11.022 -14.14,23.25 -27.171,23.788 -10.604,0.437 -15.928,-7.326 -16.95,-17.697 -0.938,-9.523 -1.603,-16.48 3.476,-24.414 z"
       style="fill:#733e00"
       id="path6" /><path
       d="m 334.376,151.933 c 5.897,-5.911 13.381,-15.296 21.965,-18.143 8.442,-2.8 20.417,-0.623 24.181,6.799 4.684,9.236 -0.79,25.62 -9.373,35.748 -7.695,9.079 -17.925,18.834 -30.826,16.924 -10.497,-1.554 -14.385,-9.697 -13.592,-19.452 0.727,-8.956 1.279,-15.495 7.645,-21.876 z"
       style="fill:#733e00"
       id="path8" /><path
       d="m 172.17,130.416 c -2.264,-8.6 -6.88,-20.297 -4.854,-30.421 2.866,-14.327 22.006,-24.279 30.017,-18.386 6.872,5.055 14.247,11.986 17.348,20.653 2.822,7.887 3.484,17.747 2.759,26.597 -0.398,4.861 -0.937,8.362 -3.838,12.546 -7.132,10.288 -15.97,9.147 -25.356,6.07 -6.339,-2.079 -13.631,-7.776 -16.076,-17.059 z"
       style="fill:#733e00"
       id="path10" /><path
       d="m 110.069,182.765 c -5.589,-6.203 -14.564,-14.174 -16.951,-22.898 -1.04,-3.8 -1.014,-8.865 0,-12.527 1.113,-4.018 3.834,-9.384 8.073,-11.258 3.23,-1.428 10.868,-0.7 13.797,0 8.238,1.968 15.038,5.255 21.403,11.258 5.792,5.463 10.472,13.16 13.493,20.469 1.659,4.014 2.629,6.981 1.771,11.211 -2.109,10.401 -11.47,13.223 -20.146,13.223 -8.986,0 -15.406,-2.783 -21.44,-9.478 z"
       style="fill:#733e00"
       id="path12" /></g><path
     d="m 340.81628,113.88517 c -28.833,7.743 -53.078,30.329 -63.625,57.584 -5.018,12.966 -6.584,27.156 -6.117,40.95 0.432,12.766 2.266,25.83 11.133,35.815 20.126,22.661 54.743,23.667 82.604,23.148 13.085,-0.244 29.431,-2.965 40.413,-10.459 8.752,-5.971 16.255,-17.898 17.489,-28.37 1.207,-10.247 -6.96,-19.984 -16.993,-21.685 -9.686,-1.642 -20.97,-0.096 -29.247,5.225 -6.58,4.231 -11.58,10.785 -19.535,12.805 -8.278,2.102 -20.541,0.116 -26.616,-6.191 -3.376,-3.506 -5.426,-9.125 -6.618,-13.601 -2.071,-7.776 -2.575,-15.891 -0.395,-23.696 3.137,-11.235 10.083,-22.311 21.254,-27.165 5.021,-2.182 11.463,-3.924 16.762,-1.569 5.348,2.377 9.374,6.955 14.26,10.15 6.084,3.978 13.391,5.332 20.443,3.022 2.323,-0.761 9.068,-3.314 11.384,-6.518 4.659,-6.446 0.726,-17.446 -2.188,-23.747 -3.316,-7.168 -8.497,-14.082 -14.927,-18.854 -12.954,-9.615 -34.294,-10.923 -49.481,-6.844 z"
     style="fill:#733e00"
     id="path16" /><path
     d="m 475.75628,107.62317 c -3.819,0.282 -8.588,0.739 -12.105,2.378 -15.906,7.409 -13.528,31.391 -14.9,44.519 -3.21,30.706 -3.319,40.348 -1.798,70.293 0.558,10.996 1.274,21.993 2.435,32.942 0.222,2.103 2.384,6.114 4.054,7.423 14.402,11.284 45.637,7.953 51.247,-11.897 3.737,-13.223 -3.375,-28.418 -6.099,-40.561 -0.685,-3.052 -1.086,-8.344 3.314,-8.885 15.406,-1.894 20.36,16.873 25.807,27.235 9.265,17.622 26.369,42.561 50.093,36.982 15.471,-3.639 18.908,-18.258 13.582,-31.939 -1.275,-3.275 -2.807,-6.671 -5.378,-9.067 -11.139,-10.381 -37.827,-30.285 -44.053,-35.457 -0.961,-0.798 -6.685,-5.316 -6.083,-10.385 2.027,-17.09 22.295,-23.092 45.498,-26.011 7.804,-0.982 14.621,-8.922 16.229,-17.704 2.47,-13.5 -14.76,-23.948 -25.764,-25.064 -11.358,-1.152 -25.419,3.914 -33.373,11.769 -18.44,18.211 -22.15,39.253 -36.558,35.476 -9.765,-2.56 -4.085,-16.349 -3.314,-20.171 2.341,-11.611 2.424,-24.072 -10.687,-29.661 -2.128,-0.907 -4.422,-1.402 -6.698,-1.817 -1.792,-0.327 -3.633,-0.531 -5.449,-0.398 z"
     style="fill:#733e00"
     id="path18" /><path
     d="m 665.89128,122.19617 c -2.218,15.22 13.707,25.179 27.016,21.099 10.738,-3.292 17.801,-12.63 26.98,-18.449 17.035,-10.799 38.815,-3.545 49.059,13.082 9.978,16.195 -12.182,34.139 -22.717,42.281 -4.878,3.77 -9.968,7.266 -15.222,10.458 -10.241,6.222 -20.859,11.761 -31.224,17.761 -13.506,7.82 -21.649,11.624 -28.819,25.234 -2.578,4.896 -4.011,9.704 -2.45,15.232 3.79,13.418 20.938,17.378 32.236,19.446 4.61,0.844 9.278,1.336 13.942,1.758 20.481,1.851 41.544,1.427 62.047,0.36 10.263,-0.534 21.781,-1.344 32.037,-3.756 2.85,-0.671 7.966,-2.721 10.161,-4.873 3.491,-3.424 6.638,-7.222 9.6,-11.138 5.917,-7.824 9.795,-25.294 -3.456,-28.893 -4.688,-1.274 -12.031,-0.379 -16.475,0.241 -18.454,2.573 -20.273,3.371 -38.213,6.881 -5.728,1.121 -11.427,2.441 -17.201,3.273 -5.719,0.824 -11.483,1.306 -17.246,1.691 -2.978,0.198 -6.598,1.277 -8.932,-0.638 -1.824,-1.497 3.185,-3.63 5.228,-4.789 3.454,-1.959 7.102,-3.532 10.63,-5.346 7.757,-3.991 15.718,-7.596 23.223,-12.069 5.807,-3.461 11.234,-7.571 16.626,-11.682 20.221,-15.416 48.559,-40.001 39.114,-70.032 -3.496,-11.117 -12.458,-21.137 -20.982,-28.353 -28.763,-24.351999 -73.792,-27.722999 -105.237,-7.055999 -9.374,6.160999 -17.19,11.372999 -24.813,19.336999 -2.017,2.108 -4.461,5.85 -4.912,8.94 z"
     style="fill:#44a2c7"
     id="path22" /><path
     d="m 845.95328,87.170171 c -0.874,3.841 -1.204,7.867 -1.026,11.82 0.185,4.134999 0.982,8.249999 2.103,12.203999 6.997,24.679 36.169,18.569 53.615,16.714 7.096,-0.755 14.216,-1.263 21.295,-2.187 1.694,-0.221 15.176,-5.044 13.534,2.825 -1.763,8.445 -6.3,12.786 -13.534,16.688 -13.421,7.239 -32.752,15.51 -48.46,20.37 -9.714,3.005 -11.766,14.898 -4.445,20.885 25.1,20.529 81.178,-15.552 79.413,9.569 -0.882,12.569 -19.989,30.178 -33.186,33.239 -27.212,6.31 -62.885,-21.082 -62.885,7.351 0,17.474 19.718,22.118 33.234,26.044 13.352,3.878 27.224,6.038 38.251,5.46 9.683,-0.508 21.679,-5.101 27.912,-8.931 21.482,-13.201 31.834,-50.612 31.833,-63.163 0,-7.523 -3.533,-14.505 -13.286,-21.114 -12.803,-8.677 -42.955,-5.126 -41.101,-7.894 2.454,-3.665 50.723,-14.57 58.066,-61.867 0.819,-5.276999 2.248,-14.420999 -3.211,-18.012999 -9.456,-6.223 -22.042,-4.813 -32.301,-3.97 -22.946,1.885 -46.284,6.661 -69.369,3.095 -3.747,-0.578 -7.351,-1.976 -10.994,-3.095 -8.147,-2.505 -22.332,-9.77 -25.458,3.97 z"
     style="fill:#44a2c7"
     id="path24" /><path
     d="m 623.73428,167.31617 c -6.383,3.053 -14.432,11.703 -14.432,18.318 0,6.614 7.397,17.438 14.432,21.37 7.035,3.932 21.192,5.782 27.777,2.22 6.584,-3.561 12.38,-16.606 11.729,-23.59 -0.652,-6.985 -9.053,-15.265 -15.638,-18.318 -6.584,-3.053 -17.485,-3.053 -23.868,0 z"
     style="fill:#e98727"
     id="path28" /></svg>
