<?xml version="1.0" encoding="UTF-8" standalone="no"?>
<svg
   xmlns:dc="http://purl.org/dc/elements/1.1/"
   xmlns:cc="http://creativecommons.org/ns#"
   xmlns:rdf="http://www.w3.org/1999/02/22-rdf-syntax-ns#"
   xmlns:svg="http://www.w3.org/2000/svg"
   xmlns="http://www.w3.org/2000/svg"
   xmlns:sodipodi="http://sodipodi.sourceforge.net/DTD/sodipodi-0.dtd"
   xmlns:inkscape="http://www.inkscape.org/namespaces/inkscape"
   version="1.1"
   id="Capa_1"
   x="0px"
   y="0px"
   width="541.83557"
   height="313.73074"
   viewBox="0 0 541.83557 313.73074"
   xml:space="preserve"
   sodipodi:docname="mouse.svg"
   inkscape:version="1.0.2 (1.0.2+r75+1)"><metadata
   id="metadata926"><rdf:RDF><cc:Work
       rdf:about=""><dc:format>image/svg+xml</dc:format><dc:type
         rdf:resource="http://purl.org/dc/dcmitype/StillImage" /><dc:title></dc:title></cc:Work></rdf:RDF></metadata><defs
   id="defs924" /><sodipodi:namedview
   pagecolor="#ffffff"
   bordercolor="#666666"
   borderopacity="1"
   objecttolerance="10"
   gridtolerance="10"
   guidetolerance="10"
   inkscape:pageopacity="0"
   inkscape:pageshadow="2"
   inkscape:window-width="1920"
   inkscape:window-height="1017"
   id="namedview922"
   showgrid="false"
   inkscape:zoom="1.1497944"
   inkscape:cx="270.91799"
   inkscape:cy="156.86575"
   inkscape:window-x="1600"
   inkscape:window-y="30"
   inkscape:window-maximized="1"
   inkscape:current-layer="Capa_1"
   inkscape:document-rotation="0"
   fit-margin-top="0"
   fit-margin-left="0"
   fit-margin-right="0"
   fit-margin-bottom="0" />
<g
   id="g919"
   style="fill:#334155;fill-opacity:1"
   transform="matrix(-1,0,0,1,541.83557,-114.05225)">
	<g
   id="g917"
   style="fill:#334155;fill-opacity:1">
		<path
   d="m 157.25,274.019 c 29.607,8.326 64.329,-23.056 77.606,-70.086 13.236,-47.053 11.671,-79.743 -17.913,-88.092 -29.607,-8.332 -87.683,12.594 -100.931,59.635 -13.265,47.024 11.654,90.183 41.238,98.543 z"
   id="path911"
   style="fill:#334155;fill-opacity:1" />
		<path
   d="m 135.606,335.219 c -5.786,0 -10.486,-4.706 -10.486,-10.485 0,-2.032 0.741,-3.842 1.746,-5.441 -0.047,0 -0.105,-0.012 -0.152,-0.012 -9.721,0 -17.626,7.893 -17.626,17.62 0,9.727 7.894,17.62 17.626,17.62 9.732,0 17.632,-7.881 17.632,-17.62 0,-1.88 -0.368,-3.655 -0.917,-5.36 -1.926,2.206 -4.676,3.678 -7.823,3.678 z"
   id="path913"
   style="fill:#334155;fill-opacity:1" />
		<path
   d="m 529.439,262.593 c -6.539,-9.435 -13.966,-20.12 -16.628,-33.479 -2.382,-12.062 -0.141,-37.81 25.409,-48.857 l -4.741,-10.965 c -28.27,12.232 -36.619,40.8 -32.38,62.151 3.129,15.811 11.665,28.101 18.52,37.98 6.294,9.067 11.269,16.226 10.077,22.25 -0.863,4.402 -5.348,9.225 -13.288,14.316 -22.49,14.422 -50.655,11.291 -70.589,6.48 0.689,-4.484 1.121,-9.025 1.121,-13.65 0,-68.509 -77.77,-124.052 -173.702,-124.052 -7.654,0 -15.163,0.403 -22.555,1.086 -1.897,12.459 -5.021,23.582 -6.918,30.337 -13.014,46.083 -45.453,79.515 -77.139,79.515 -4.04,0 -8.045,-0.549 -11.898,-1.623 -18.859,-5.336 -35.621,-22.625 -44.601,-45.634 L 24.259,393.85 c -2.055,-0.829 -4.279,-1.308 -6.644,-1.308 -9.721,0 -17.615,7.882 -17.615,17.621 0,9.727 7.894,17.62 17.626,17.62 7.111,0 13.201,-4.228 15.998,-10.288 l 229.198,4.998 c 3.456,0.141 6.89,0.374 10.404,0.374 0.858,0 1.711,-0.093 2.563,-0.104 l 4.227,0.104 -0.21,-0.245 c 80.794,-2.16 147.458,-43.637 163.433,-98.473 9.715,2.347 21.299,4.32 33.514,4.32 15.297,0 31.539,-3.083 46.077,-12.425 11.094,-7.111 17.002,-14.105 18.591,-22.034 2.195,-10.999 -4.695,-20.913 -11.982,-31.417 z M 129.388,363.734 c -16.202,0 -29.35,-13.148 -29.35,-29.356 0,-16.219 13.148,-29.355 29.35,-29.355 16.202,0 29.356,13.137 29.356,29.355 0,16.208 -13.142,29.356 -29.356,29.356 z"
   id="path915"
   style="fill:#334155;fill-opacity:1" />
	</g>
</g>

</svg>
