<?xml version="1.0" standalone="no"?>
<!DOCTYPE svg PUBLIC "-//W3C//DTD SVG 20010904//EN"
 "http://www.w3.org/TR/2001/REC-SVG-20010904/DTD/svg10.dtd">
<svg version="1.0" xmlns="http://www.w3.org/2000/svg"
 width="100px" height="100px" viewBox="0 0 1280.000000 1214.000000"
 preserveAspectRatio="xMidYMid meet">
<metadata>
Created by potrace 1.15, written by Peter Selinger 2001-2017
</metadata>
<g transform="translate(0.000000,1214.000000) scale(0.100000,-0.100000)"
fill="#7E22CEe1" stroke="none">
<path d="M7815 10968 c-429 -634 -921 -1363 -1095 -1620 -173 -257 -317 -467
-320 -467 -3 0 -329 440 -725 979 -542 737 -722 975 -727 962 -5 -9 -143 -514
-309 -1122 -165 -607 -302 -1106 -304 -1109 -2 -2 -57 26 -122 61 -2162 1190                                                                                          
-3965 2179 -3968 2176 -2 -1 94 -118 213 -259 120 -140 516 -610 882 -1044
366 -434 830 -985 1032 -1224 203 -240 368 -438 368 -441 0 -3 -51 -16 -112
-28 -179 -37 -1784 -365 -2213 -453 -215 -43 -393 -80 -398 -82 -4 -1 180
-153 409 -337 636 -511 1779 -1432 1782 -1435 3 -2 -476 -359 -1780 -1327
-237 -177 -320 -244 -305 -246 12 -1 744 79 1627 177 883 99 1606 178 1608
177 1 -2 -117 -464 -263 -1026 -145 -563 -263 -1025 -262 -1027 2 -1 394 247
871 552 508 324 869 549 871 542 2 -7 103 -745 225 -1642 121 -896 223 -1643
227 -1660 l6 -30 8 25 c13 42 450 1392 629 1945 93 286 257 795 366 1130 108
336 200 614 204 618 4 4 366 -595 805 -1332 440 -737 800 -1339 802 -1337 2 2
153 975 435 2804 12 78 25 142 28 142 5 0 347 -286 1788 -1491 353 -296 642
-534 642 -528 0 9 -156 596 -380 1429 -82 306 -342 1277 -366 1372 -10 37 -16
69 -14 71 3 3 608 -37 1345 -88 737 -52 1366 -95 1398 -97 45 -3 55 -2 45 8
-7 6 -530 357 -1163 779 -632 422 -1155 773 -1162 779 -9 8 78 68 345 237 910
578 1687 1072 1691 1075 9 9 -12 13 -239 53 -129 23 -374 67 -545 97 -578 103
-1259 224 -1527 271 -148 26 -268 50 -268 54 0 4 221 364 491 799 269 436 489
793 487 795 -3 2 -542 -102 -2005 -387 l-483 -95 0 36 c0 20 11 187 25 371 25
346 36 499 130 1789 31 420 54 768 53 773 -2 4 -354 -510 -783 -1144z"/>
</g>
</svg>
