<?xml version="1.0" encoding="UTF-8" standalone="no"?>
<!-- Created with Inkscape (http://www.inkscape.org/) -->

<svg
   xmlns:dc="http://purl.org/dc/elements/1.1/"
   xmlns:cc="http://creativecommons.org/ns#"
   xmlns:rdf="http://www.w3.org/1999/02/22-rdf-syntax-ns#"
   xmlns:svg="http://www.w3.org/2000/svg"
   xmlns="http://www.w3.org/2000/svg"
   xmlns:sodipodi="http://sodipodi.sourceforge.net/DTD/sodipodi-0.dtd"
   xmlns:inkscape="http://www.inkscape.org/namespaces/inkscape"
   width="137.72551mm"
   height="119.91238mm"
   viewBox="0 0 137.72551 119.91238"
   version="1.1"
   id="svg8"
   inkscape:version="0.92.5 (2060ec1f9f, 2020-04-08)"
   sodipodi:docname="kuce.svg">
  <defs
     id="defs2" />
  <sodipodi:namedview
     id="base"
     pagecolor="#ffffff"
     bordercolor="#666666"
     borderopacity="1.0"
     inkscape:pageopacity="0.0"
     inkscape:pageshadow="2"
     inkscape:zoom="0.98994949"
     inkscape:cx="202.00145"
     inkscape:cy="150.3655"
     inkscape:document-units="mm"
     inkscape:current-layer="layer1"
     showgrid="false"
     inkscape:window-width="1920"
     inkscape:window-height="1016"
     inkscape:window-x="1600"
     inkscape:window-y="27"
     inkscape:window-maximized="1"
     fit-margin-top="0"
     fit-margin-left="0"
     fit-margin-right="0"
     fit-margin-bottom="0"
     showguides="false" />
  <metadata
     id="metadata5">
    <rdf:RDF>
      <cc:Work
         rdf:about="">
        <dc:format>image/svg+xml</dc:format>
        <dc:type
           rdf:resource="http://purl.org/dc/dcmitype/StillImage" />
        <dc:title />
      </cc:Work>
    </rdf:RDF>
  </metadata>
  <g
     inkscape:label="Layer 1"
     inkscape:groupmode="layer"
     id="layer1"
     transform="translate(-32.114524,-91.92738)">
    <path
       style="fill:#7f1d1d;fill-opacity:1;stroke-width:0.26458332"
       d="m 101.06023,91.927464 c -3.44777,0.0036 -6.92249,0.12622 -8.15144,0.365353 -5.84139,1.136634 -10.00277,2.720893 -14.04721,5.347477 l -1.61178,1.046449 -1.18288,-0.522968 c -2.04123,-0.902935 -4.21937,-1.336217 -6.69571,-1.332217 -8.20259,0.01341 -15.90817,4.946272 -24.79125,15.870862 -10.2526,12.60882 -14.45727,24.18295 -11.57966,31.87403 1.4514,3.87922 5.09494,7.8771 8.78086,9.63455 2.08476,0.99402 5.01947,1.88309 6.21564,1.88309 0.81474,0 0.87494,0.25789 0.46767,2.00453 -0.96385,4.13357 -1.30748,7.67355 -1.30948,13.47359 -0.002,6.70852 0.34794,9.23858 1.96164,14.16813 1.7829,5.44645 3.77355,8.77365 7.62227,12.74186 5.90811,6.09154 14.0068,10.00235 24.7928,11.97188 1.89177,0.34544 4.74927,0.75834 6.35,0.91777 1.60073,0.15943 3.32714,0.33668 3.83646,0.39378 1.89791,0.21276 20.83462,-0.0736 22.48958,-0.34004 0.94588,-0.15229 3.02948,-0.47177 4.63021,-0.71003 9.21488,-1.37163 17.33934,-4.62836 23.22701,-9.31106 6.41868,-5.10505 10.32336,-11.74213 12.10314,-20.57187 1.13543,-5.63311 0.90086,-15.68441 -0.51573,-22.09271 -0.27343,-1.23692 -0.44271,-2.33825 -0.37621,-2.44739 0.0665,-0.10914 0.37414,-0.19844 0.68368,-0.19844 1.20308,0 4.13788,-0.89194 6.2854,-1.91048 1.85663,-0.8806 2.64189,-1.46498 4.50257,-3.34863 2.42469,-2.45464 3.81725,-4.72703 4.63796,-7.56802 0.54237,-1.87752 0.61027,-5.63757 0.14314,-7.94266 -1.6769,-8.27465 -8.23824,-19.0887 -17.07337,-28.13989 -6.72615,-6.89064 -12.30331,-9.95464 -18.72237,-10.285155 -3.20103,-0.164822 -5.34017,0.158099 -7.56388,1.141531 l -1.45108,0.641821 -1.41438,-0.938442 c -3.8368,-2.546723 -8.01198,-4.14867 -14.25546,-5.468401 -1.11956,-0.236646 -4.54038,-0.351946 -7.98814,-0.3483 z m -0.0837,8.977746 c 2.95968,-2.4e-4 5.91906,0.21602 7.92665,0.64906 7.6027,1.6399 13.01732,5.41872 17.77101,12.40234 3.30039,4.84862 6.12713,11.16106 9.62783,21.49998 0.76372,2.25557 2.00888,5.76792 2.76728,7.80521 3.73621,10.03643 4.23068,11.49265 5.12992,15.1138 0.88381,3.55899 1.16923,5.41878 1.49758,9.75703 0.81258,10.73685 -1.44036,18.33515 -7.18923,24.24658 -5.72426,5.88614 -11.41333,8.40247 -25.43112,9.46216 -1.87987,0.14207 -3.51698,0.19728 -3.63802,0.12248 -0.12107,-0.0748 -6.49967,-3.00492 -6.551,-7.49737 -0.0472,-4.13565 2.60809,-8.18023 3.10533,-8.33805 2.40297,-0.76268 8.31835,-6.0325 10.02833,-8.93382 1.90468,-3.2317 2.28911,-4.54079 2.27221,-7.73906 -0.0184,-3.46007 -0.45157,-4.67296 -2.41949,-6.77685 -1.44272,-1.54236 -3.36776,-2.59614 -6.03167,-3.30212 -1.55395,-0.41183 -2.87423,-0.49165 -8.20208,-0.49765 -6.51421,-0.007 -8.35416,0.12816 -10.48257,0.76946 -3.14718,0.94826 -5.54383,2.90603 -6.74739,5.51181 -0.68652,1.48635 -0.76172,1.92429 -0.76119,4.42764 6.2e-4,3.05076 0.42554,4.46269 2.28668,7.59437 1.74824,2.94172 7.62595,8.18346 10.03246,8.94725 0.50431,0.16006 2.53064,4.01316 2.516124,8.28085 -0.0148,4.35106 -9.365691,7.84929 -9.881231,7.88179 -0.29105,0.0183 -1.83885,-0.0667 -3.43958,-0.18862 -15.34252,-1.16841 -18.152583,-4.70013 -23.666593,-11.9908 -4.17729,-5.52325 -5.8296,-12.47338 -5.20433,-21.89375 0.46413,-6.99239 1.56063,-11.35896 5.53558,-22.04672 1.13656,-3.05593 2.67821,-7.34219 3.42615,-9.525 3.15752,-9.21497 5.04821,-13.87786 7.44605,-18.36631 5.16153,-9.66176 11.40917,-14.7974 20.34708,-16.72508 2.00935,-0.43338 4.96955,-0.65037 7.92923,-0.65061 z m -31.70297,4.91805 c 0.49098,0 0.51051,0.0535 0.18552,0.51211 -3.23775,4.56901 -6.19073,9.93426 -8.31061,15.0983 -1.37649,3.35314 -1.55274,3.83142 -3.94188,10.71563 -0.90905,2.61937 -2.52621,7.11398 -3.59409,9.98802 -1.43143,3.85251 -2.0507,5.21706 -2.35696,5.19296 -4.56939,-0.35922 -6.91832,-1.56796 -9.07077,-4.66793 -0.81666,-1.17623 -0.86971,-1.38956 -0.86971,-3.50159 0,-2.72132 0.87609,-5.65692 2.83858,-9.51157 3.47788,-6.83111 11.12926,-16.29229 16.34939,-20.21633 2.70091,-2.03032 6.53805,-3.6096 8.77053,-3.6096 z m 63.62092,0.003 c 1.23288,0.005 3.53858,0.7114 5.52266,1.69188 7.38111,3.64757 19.07122,18.61633 21.68705,27.76937 1.2011,4.20281 0.72274,6.66903 -1.77974,9.17153 -1.44754,1.44752 -2.78311,2.09619 -5.2064,2.52853 -1.10054,0.19633 -2.18017,0.36087 -2.39882,0.36587 -0.42175,0.01 -3.00692,-6.6494 -6.07404,-15.64504 -0.87657,-2.57088 -1.94054,-5.54745 -2.3642,-6.61458 -0.42365,-1.06714 -1.12924,-2.84519 -1.56786,-3.95119 -1.83616,-4.63007 -4.74905,-9.87888 -8.21552,-14.80374 -0.33496,-0.47588 -0.30433,-0.51563 0.39687,-0.51263 z m -17.71881,30.42811 c -0.8304,-0.0271 -1.68792,0.15397 -2.55541,0.54726 -2.38267,1.0802 -3.5481,2.85434 -3.5481,5.40173 0,2.45591 1.36674,4.5866 3.5481,5.53145 3.67174,1.59041 8.20654,-1.36816 8.20054,-5.35006 -0.003,-1.73003 -0.51732,-2.95043 -1.80248,-4.27519 -1.15072,-1.1862 -2.45867,-1.81006 -3.84265,-1.85519 z m -28.0877,0.14108 c -4.03266,0.028 -6.7682,3.65688 -5.68802,7.54528 0.35635,1.2828 1.98714,3.12397 3.29179,3.71656 3.36649,1.52911 7.36478,-0.60969 8.03413,-4.29793 0.67079,-3.69613 -1.99518,-6.98911 -5.6379,-6.96391 z m 13.09636,31.36966 c 0.69816,-4.9e-4 1.43877,0.0118 2.22054,0.0372 5.0664,0.16433 6.70923,0.50266 6.94221,1.43092 0.39865,1.58836 -2.57097,5.64133 -5.63325,7.6879 -2.66491,1.781 -4.42182,1.31955 -7.82381,-2.05517 -1.9516,-1.93594 -3.3685,-4.17765 -3.3755,-5.33818 -0.006,-1.13114 2.78267,-1.75921 7.66981,-1.76268 z"
       id="path826"
       inkscape:connector-curvature="0"
       sodipodi:nodetypes="cscccccccscccsssccccccssccccsscccccscccccccccsccccccscccssccsccsccsscsccccsscscccccccccccccsccccccscccccscccc" />
    <circle
       style="fill:#7f1d1d;fill-opacity:1;stroke-width:0.26458332"
       id="path816"
       cx="88.505219"
       cy="141.27747"
       r="8.5044641" />
    <circle
       style="fill:#7f1d1d;fill-opacity:1;stroke-width:0.26458332"
       id="path816-0"
       cx="114.2076"
       cy="141.08847"
       r="8.5044641" />
    <rect
       style="fill:#7f1d1d;fill-opacity:1;stroke:#713f12;stroke-width:4.24597549;stroke-miterlimit:4;stroke-dasharray:none;stroke-opacity:0.4437269"
       id="rect838"
       width="18.465101"
       height="15.932202"
       x="91.640137"
       y="162.58052" />
  </g>
</svg>
