<?xml version="1.0" encoding="UTF-8" standalone="no"?>
<!-- Created with Inkscape (http://www.inkscape.org/) -->

<svg
   xmlns:dc="http://purl.org/dc/elements/1.1/"
   xmlns:cc="http://creativecommons.org/ns#"
   xmlns:rdf="http://www.w3.org/1999/02/22-rdf-syntax-ns#"
   xmlns:svg="http://www.w3.org/2000/svg"
   xmlns="http://www.w3.org/2000/svg"
   xmlns:sodipodi="http://sodipodi.sourceforge.net/DTD/sodipodi-0.dtd"
   xmlns:inkscape="http://www.inkscape.org/namespaces/inkscape"
   width="348.67062mm"
   height="266.83722mm"
   viewBox="0 0 348.67063 266.83722"
   version="1.1"
   id="svg8"
   inkscape:version="0.92.5 (2060ec1f9f, 2020-04-08)"
   sodipodi:docname="maca.svg">
  <defs
     id="defs2" />
  <sodipodi:namedview
     id="base"
     pagecolor="#ffffff"
     bordercolor="#666666"
     borderopacity="1.0"
     inkscape:pageopacity="0.0"
     inkscape:pageshadow="2"
     inkscape:zoom="0.12374369"
     inkscape:cx="464.39852"
     inkscape:cy="-878.03291"
     inkscape:document-units="mm"
     inkscape:current-layer="layer1"
     showgrid="false"
     inkscape:window-width="1920"
     inkscape:window-height="1016"
     inkscape:window-x="1600"
     inkscape:window-y="27"
     inkscape:window-maximized="1"
     fit-margin-top="0"
     fit-margin-left="0"
     fit-margin-right="0"
     fit-margin-bottom="0" />
  <metadata
     id="metadata5">
    <rdf:RDF>
      <cc:Work
         rdf:about="">
        <dc:format>image/svg+xml</dc:format>
        <dc:type
           rdf:resource="http://purl.org/dc/dcmitype/StillImage" />
        <dc:title />
      </cc:Work>
    </rdf:RDF>
  </metadata>
  <g
     inkscape:label="Layer 1"
     inkscape:groupmode="layer"
     id="layer1"
     transform="translate(156.0501,-17.729614)">
    <g
       id="g818">
      <path
         inkscape:connector-curvature="0"
         id="path826"
         d="m -77.583984,18.181641 c -12.080809,20.424898 -14.266065,44.594225 -17.992696,67.515288 -1.132969,11.631532 -1.197628,23.377101 -0.02879,35.008151 -5.24356,9.74644 -10.86136,19.53087 -13.94531,30.18359 -5.49278,-0.0678 -10.73211,-2.17084 -16.22157,-2.45741 -9.601,-1.4351 -20.55529,-2.28668 -29.02257,3.26405 -3.38049,4.28879 0.61626,10.56802 5.47717,11.34214 11.44787,5.84948 24.60115,5.98381 37.0033,8.11099 -0.0566,2.26796 0.0663,4.53522 0.0918,6.80273 -12.72585,-10e-4 -26.67582,-2.57942 -38.26953,4.16211 -5.67244,6.49562 1.98621,17.95489 10.14649,15.67774 10.24762,0.77055 20.57606,-0.6482 30.76367,0.65429 0.55409,1.69669 1.30323,3.30639 1.72656,4.97071 -15.11348,3.02257 -31.95485,2.68984 -44.94336,12.21289 -3.82048,3.24257 -3.13538,11.19336 2.52149,11.85937 16.97814,3.41089 33.69314,-3.61974 50.505855,-4.23633 7.545552,10.68725 15.440819,21.40745 26.00639,29.33023 48.282056,39.71382 122.424545,42.48949 174.306115,8.07602 14.79436,-9.49266 26.99848,-22.71604 36.69531,-37.22461 3.25251,-1.76942 6.92934,0.78123 10.34634,0.71693 13.66924,2.25656 28.21318,6.78861 41.8021,1.73034 5.76964,-3.32867 3.2192,-12.97117 -2.90212,-14.28633 -12.83785,-5.87375 -27.45261,-4.40961 -40.68968,-8.82695 0.4459,-2.45487 1.39655,-5.77885 4.57812,-5.0586 11.14782,0.46211 22.82046,1.94909 33.69532,-1.51171 3.82825,-0.87217 7.65519,-3.77293 7.42578,-8.07422 0.20619,-6.05342 -5.56374,-11.33079 -11.60352,-10.34961 -9.92697,0.0617 -19.88163,0.26302 -29.81445,-0.0312 0.39316,-1.99413 -0.89086,-5.3852 0.73828,-6.375 12.28351,-2.01516 26.00274,-1.70456 36.36133,-9.64453 5.11198,-6.80102 -3.25572,-17.35675 -11.08399,-14.70313 -9.91274,0.39843 -19.42955,4.6769 -29.38086,3.56836 -1.80201,-7.33745 -4.02086,-14.85395 -9.01562,-20.70703 -3.73478,-5.77454 -5.25543,-12.86576 -3.91574,-19.59308 0.87844,-28.870291 -5.30631,-57.479676 -14.3284,-84.758483 -7.33926,-4.185014 -16.35178,0.454807 -20.845705,6.708984 C 85.135708,44.950023 72.645177,58.70236 58.529297,70.726562 33.11811,65.068538 6.3974274,64.298119 -18.982422,70.53125 c -3.544572,0.951695 -5.334298,-3.432519 -7.93457,-5.079156 -15.869375,-15.358514 -31.216214,-31.278706 -47.940213,-45.728893 -0.77362,-0.169996 -2.306057,-3.092066 -2.726779,-1.54156 z M 106.11719,59.373047 c 5.06777,21.082183 6.79298,42.908503 5.56858,64.578893 0.88463,7.81712 6.26826,14.11685 9.41512,21.10037 4.17945,7.63965 7.16578,16.23891 6.94976,25.09703 1.87106,30.40757 -17.22108,59.9803 -44.201843,73.49654 -46.179851,26.91682 -109.285784,21.87277 -149.343105,-13.89917 -19.706145,-17.85397 -30.527711,-46.62116 -22.909999,-72.67444 2.832312,-10.54343 8.736143,-19.82923 13.554591,-29.48636 3.258559,-12.50208 -1.176598,-25.44187 1.384541,-37.986317 0.856483,-10.661935 1.953619,-21.45689 6.031571,-31.417952 12.405298,12.649224 24.986432,25.177949 38.154297,37.013671 4.091575,2.990981 9.038348,-0.606147 13.242425,-1.512211 23.1310763,-5.438884 47.47646,-5.53366 70.506661,0.34609 3.086504,0.623849 6.246686,1.952591 9.247008,2.418075 16.032209,-10.471759 27.471543,-26.333387 42.113283,-38.373047 0.0957,0.432942 0.1914,0.865885 0.28711,1.298828 z"
         style="stroke:none;stroke-width:0.26458332;fill:#713f12;fill-opacity:1" />
      <circle
         r="16.30344"
         cy="150.80357"
         cx="-38.219543"
         id="path831"
         style="fill:#713f12;stroke:#808080;stroke-width:0.26458332;fill-opacity:1" />
      <circle
         r="16.30344"
         cy="148.39815"
         cx="75.931404"
         id="path831-4"
         style="fill:#713f12;stroke:#808080;stroke-width:0.26458332;fill-opacity:1" />
    </g>
    <path
       style="color:#000000;font-style:normal;font-variant:normal;font-weight:normal;font-stretch:normal;font-size:medium;line-height:normal;font-family:sans-serif;font-variant-ligatures:normal;font-variant-position:normal;font-variant-caps:normal;font-variant-numeric:normal;font-variant-alternates:normal;font-feature-settings:normal;text-indent:0;text-align:start;text-decoration:none;text-decoration-line:none;text-decoration-style:solid;text-decoration-color:#000000;letter-spacing:normal;word-spacing:normal;text-transform:none;writing-mode:lr-tb;direction:ltr;text-orientation:mixed;dominant-baseline:auto;baseline-shift:baseline;text-anchor:start;white-space:normal;shape-padding:0;clip-rule:nonzero;display:inline;overflow:visible;visibility:visible;opacity:1;isolation:auto;mix-blend-mode:normal;color-interpolation:sRGB;color-interpolation-filters:linearRGB;solid-color:#000000;solid-opacity:1;vector-effect:none;fill:#713f12;fill-opacity:1;fill-rule:nonzero;stroke:none;stroke-width:9.76500034;stroke-linecap:butt;stroke-linejoin:miter;stroke-miterlimit:4;stroke-dasharray:none;stroke-dashoffset:0;stroke-opacity:1;color-rendering:auto;image-rendering:auto;shape-rendering:auto;text-rendering:auto;enable-background:accumulate"
       d="m 16.072266,200.19531 -4.029297,5.64649 c 0,0 -6.0626638,11.6828 -11.25083729,15.25465 -6.23613941,4.54644 -11.17037871,7.00323 -20.62416271,9.53636 0,0 4.093007,0.48614 9.078125,0.35547 4.9851174,-0.13066 10.97655228,-0.50425 15.9492185,-3.92773 4.372903,-3.01057 8.0722175,-7.04456 10.8203125,-10.39453 0.492418,0.62003 0.398733,0.57406 0.964844,1.25195 2.918417,3.49468 6.598212,7.58403 10.857422,10.28515 4.903449,3.1097 10.600149,3.43658 15.24414,3.46876 4.643992,0.0322 8.390625,-0.52344 8.390625,-0.52344 -12.531988,-4.48297 -14.426503,-4.49874 -18.971261,-8.73456 -2.427626,-1.53956 -5.399471,-6.28471 -8.782738,-10.18676 -2.627314,-3.1461 -3.68936,-6.33259 -3.68936,-6.33259 z"
       id="path819"
       inkscape:connector-curvature="0"
       sodipodi:nodetypes="cccccsccccccccc" />
  </g>
</svg>
