<?xml version="1.0" encoding="UTF-8" standalone="no"?>
<!-- Created with Inkscape (http://www.inkscape.org/) -->

<svg
   xmlns:dc="http://purl.org/dc/elements/1.1/"
   xmlns:cc="http://creativecommons.org/ns#"
   xmlns:rdf="http://www.w3.org/1999/02/22-rdf-syntax-ns#"
   xmlns:svg="http://www.w3.org/2000/svg"
   xmlns="http://www.w3.org/2000/svg"
   xmlns:sodipodi="http://sodipodi.sourceforge.net/DTD/sodipodi-0.dtd"
   xmlns:inkscape="http://www.inkscape.org/namespaces/inkscape"
   width="204.14398mm"
   height="215.92606mm"
   viewBox="0 0 204.14398 215.92606"
   version="1.1"
   id="svg8"
   inkscape:version="0.92.5 (2060ec1f9f, 2020-04-08)"
   sodipodi:docname="zec.svg">
  <defs
     id="defs2" />
  <sodipodi:namedview
     id="base"
     pagecolor="#ffffff"
     bordercolor="#666666"
     borderopacity="1.0"
     inkscape:pageopacity="0.0"
     inkscape:pageshadow="2"
     inkscape:zoom="0.69999999"
     inkscape:cx="318.49697"
     inkscape:cy="452.45283"
     inkscape:document-units="mm"
     inkscape:current-layer="layer1"
     showgrid="false"
     inkscape:window-width="1920"
     inkscape:window-height="1019"
     inkscape:window-x="0"
     inkscape:window-y="30"
     inkscape:window-maximized="1"
     fit-margin-top="0"
     fit-margin-left="0"
     fit-margin-right="0"
     fit-margin-bottom="0" />
  <metadata
     id="metadata5">
    <rdf:RDF>
      <cc:Work
         rdf:about="">
        <dc:format>image/svg+xml</dc:format>
        <dc:type
           rdf:resource="http://purl.org/dc/dcmitype/StillImage" />
        <dc:title />
      </cc:Work>
    </rdf:RDF>
  </metadata>
  <g
     inkscape:label="Layer 1"
     inkscape:groupmode="layer"
     id="layer1"
     transform="translate(-5.1648622,-39.918947)">
    <path
       id="path826"
       transform="matrix(0.26458333,0,0,0.26458333,8.1035663,43.122579)"
       style="stroke-width:0.99999994;stroke:#14532d;stroke-opacity:1;fill:#14532d;fill-opacity:1"
       d="m 103.5625,-12.105469 c -1.40785,0.0096 -2.81901,0.04302 -4.232422,0.103516 -63.948175,2.6881574 -113.884767,65.735295 -110.070312,128.140623 -4.331695,93.36492 30.37649,182.93647 69.130859,266.05274 16.457805,31.63211 35.991581,61.67823 58.472655,89.36523 -61.439412,75.42036 -44.963172,198.59809 32.04492,257.16406 76.63681,66.49796 184.72071,83.75695 282.65625,71.71485 83.77909,-10.52489 169.41226,-50.46404 214.52735,-124.85157 36.12344,-60.69299 32.59548,-141.75121 -8.73242,-199.17773 -4.29525,-14.0081 12.45807,-22.0846 17.04101,-33.53906 C 723.12433,341.37965 766.87659,218.61497 759.69141,94.955078 752.05238,44.339251 712.67969,-6.3196995 658.98047,-10.783203 600.70722,-17.530023 545.2506,18.940019 513.34375,65.505859 454.80057,143.21079 428.67485,239.92401 417.47656,335.07422 c -2.34315,7.9934 1.00103,22.48498 -4.20508,26.76367 -26.12148,-2.9952 -52.55084,-1.76802 -78.7246,0.15625 C 327.33445,247.67367 294.30226,130.22071 217.31445,42.566406 188.03259,11.486088 147.2058,-12.402813 103.5625,-12.105469 Z m -0.19336,62.148438 c 47.99207,4.107299 83.18993,43.785634 104.35742,83.933591 49.72808,88.31058 70.45516,191.77096 62.83399,292.5586 11.73232,15.56027 31.75717,2.707 46.75,0.0879 52.26649,-11.47831 105.8331,2.13391 157.83203,4.44336 11.75799,-13.37375 0.29767,-31.67864 3.1582,-47.33008 C 477.96176,277.715 509.02671,168.9108 576.93945,86.199229 598.34046,61.819745 633.80318,41.94308 666.29688,55.601572 c 28.44889,14.271009 34.95414,50.051888 32.88867,78.984378 -3.01274,86.16127 -36.55802,167.77788 -75.64453,243.36133 -19.51503,33.51027 -47.60875,61.49177 -72.74219,90.01367 2.83385,20.10107 25.84988,26.82773 34.93945,43.50195 34.06084,44.61955 30.3537,112.83026 -8.41601,153.45508 -47.38417,54.56655 -122.44328,74.49865 -192.27539,76.61719 -71.18562,1.77006 -147.30007,-14.95063 -200.83204,-64.54102 -33.56491,-31.44348 -53.0631,-80.94629 -38.55468,-126.16992 8.22752,-29.50719 28.27789,-54.04066 50.68359,-74.01172 6.35233,-12.04713 -5.52007,-22.11103 -14.31445,-28.61133 C 123.35042,390.96478 90.194443,313.02731 67.943359,235.45508 57.864685,195.75085 47.957498,154.65692 51.111328,113.43945 53.911028,86.565477 68.85318,55.350732 98.089844,50.361328 99.83958,50.13792 101.60465,50.018931 103.36914,50.042969 Z m 516.37695,56.480471 c -0.0251,0.0179 -0.0491,0.0368 -0.0742,0.0547 0.006,0.0351 0.0137,0.0679 0.0195,0.10352 0.0194,-0.0523 0.0351,-0.10594 0.0547,-0.1582 z m -97.69921,241.61523 c -4.1e-4,0.008 2.6e-4,0.0156 0,0.0234 0.007,-0.007 0.0142,-0.0145 0.0215,-0.0215 -0.006,-5.1e-4 -0.0154,-3e-4 -0.0215,-0.002 z m 33.5371,51.13867 c -6.8e-4,0.34311 -1.3e-4,0.6862 0,1.0293 0.11553,-0.2537 0.20597,-0.5132 0.31055,-0.76953 -0.0981,-0.0858 -0.19495,-0.17153 -0.31055,-0.25977 z m -83.57812,92.78711 -0.60547,0.0586 c -39.30066,7.98599 -48.11031,70.4438 -13.61914,89.74218 17.00644,9.66834 39.92248,1.05549 46.34961,-17.46484 13.46411,-26.66665 0.5226,-69.35748 -32.125,-72.33594 z m -197.26953,0.39844 c -0.58813,-0.007 -1.18223,2.5e-4 -1.78321,0.0215 -33.15264,8.7642 -42.25078,55.64195 -22.35351,80.75 13.04697,15.7219 40.9294,17.85276 52.30859,-1.04102 20.38599,-25.28295 8.88027,-79.31724 -28.17187,-79.73047 z m 109.89844,80.43555 c -1.22405,0.007 -2.42477,0.0222 -3.59571,0.041 -20.41266,0.16366 -48.25113,-2.46897 -59.60937,18.60938 -7.69391,21.33173 14.64148,35.86381 26.09375,50.27734 9.5715,16.88107 37.10741,22.79901 49.19336,5.4336 12.93615,-14.74417 34.00618,-28.44359 33.44726,-50.17383 -3.66629,-22.39622 -27.16854,-24.28723 -45.52929,-24.1875 z"
       inkscape:connector-curvature="0" />
  </g>
</svg>
